<?xml version="1.0" standalone="no"?>
<!DOCTYPE svg PUBLIC "-//W3C//DTD SVG 20010904//EN"
 "http://www.w3.org/TR/2001/REC-SVG-20010904/DTD/svg10.dtd">
<svg version="1.0" xmlns="http://www.w3.org/2000/svg"
 width="492.000000pt" height="492.000000pt" viewBox="0 0 492.000000 492.000000"
 preserveAspectRatio="xMidYMid meet">
<metadata>
Created by potrace 1.14, written by Peter Selinger 2001-2017
</metadata>
<g transform="translate(0.000000,492.000000) scale(0.100000,-0.100000)"
fill="#000000" stroke="none">
<path d="M3225 2976 c-16 -7 -59 -44 -93 -82 -69 -75 -226 -242 -317 -339 -31
-33 -89 -95 -128 -137 l-71 -78 -146 144 c-135 133 -149 145 -192 151 -55 8
-96 -10 -130 -57 -29 -41 -29 -114 0 -155 10 -15 81 -131 156 -258 76 -126
150 -243 164 -258 40 -43 94 -67 150 -67 89 0 142 35 215 141 35 51 337 479
479 679 108 152 118 179 90 243 -15 34 -31 51 -61 66 -46 24 -74 26 -116 7z
m105 -64 c12 -10 24 -33 26 -53 5 -36 -5 -52 -278 -434 -16 -22 -40 -58 -55
-79 -14 -22 -30 -44 -35 -50 -11 -13 -133 -181 -156 -216 -75 -113 -108 -151
-146 -170 -53 -25 -79 -25 -130 0 -29 14 -52 37 -77 77 -200 320 -291 472
-296 495 -13 64 35 116 94 102 15 -4 89 -69 176 -153 82 -80 154 -147 161
-149 14 -3 23 5 162 154 141 150 176 188 336 357 116 122 134 137 163 137 18
0 43 -8 55 -18z"/>
<path d="M1402 2870 c-123 -44 -216 -128 -272 -245 -29 -62 -34 -82 -38 -177
-7 -170 28 -271 132 -373 94 -93 202 -135 344 -135 159 0 320 72 337 151 14
64 -59 92 -116 45 -87 -73 -272 -95 -380 -44 -71 32 -133 94 -165 161 -42 91
-71 84 336 79 198 -2 371 -1 385 2 13 3 34 16 46 29 18 19 20 30 14 82 -13
121 -39 194 -98 272 -49 65 -138 126 -224 153 -87 27 -227 27 -301 0z m316
-140 c34 -18 77 -49 94 -69 36 -40 74 -119 83 -173 l7 -37 -323 -3 c-178 -2
-334 -2 -345 0 -19 3 -21 7 -13 47 11 58 43 123 82 165 45 49 59 59 124 86 49
21 71 24 143 21 74 -3 93 -7 148 -37z"/>
<path d="M3833 2870 c-212 -75 -340 -292 -309 -520 27 -196 179 -366 355 -400
233 -44 433 45 534 238 136 258 8 591 -261 681 -82 28 -243 28 -319 1z m312
-129 c66 -29 138 -107 166 -179 17 -43 23 -79 23 -147 1 -79 -3 -98 -28 -152
-33 -73 -104 -145 -174 -175 -64 -29 -173 -35 -245 -14 -64 19 -152 92 -192
160 -34 58 -50 167 -37 245 25 139 120 250 241 281 63 16 190 6 246 -19z"/>
<path d="M544 2866 c-18 -14 -19 -32 -22 -444 -2 -407 -2 -430 16 -452 26 -32
78 -32 104 -1 16 21 18 45 18 265 1 132 3 259 6 281 9 66 61 163 106 195 40
29 54 34 141 45 60 8 88 33 81 72 -8 44 -30 55 -104 51 -43 -2 -81 -12 -114
-28 -48 -25 -106 -83 -106 -107 0 -7 -4 -13 -10 -13 -6 0 -10 28 -10 63 0 36
-5 68 -12 75 -16 16 -70 15 -94 -2z"/>
</g>
</svg>
